<svg xmlns="http://www.w3.org/2000/svg" xmlns:xlink="http://www.w3.org/1999/xlink">
<symbol viewBox="0 0 16 16" id="exclamation-triangle"><path d="M7.938 2.016A.13.13 0 0 1 8.002 2a.13.13 0 0 1 .063.016.146.146 0 0 1 .054.057l6.857 11.667c.036.06.035.124.002.183a.163.163 0 0 1-.054.06.116.116 0 0 1-.066.017H1.146a.115.115 0 0 1-.066-.017.163.163 0 0 1-.054-.06.176.176 0 0 1 .002-.183L7.884 2.073a.147.147 0 0 1 .054-.057zm1.044-.45a1.13 1.13 0 0 0-1.96 0L.165 13.233c-.457.778.091 1.767.98 1.767h13.713c.889 0 1.438-.99.98-1.767L8.982 1.566z"/><path d="M7.002 12a1 1 0 1 1 2 0 1 1 0 0 1-2 0zM7.1 5.995a.905.905 0 1 1 1.8 0l-.35 3.507a.552.552 0 0 1-1.1 0L7.1 5.995z"/></symbol>
<symbol viewBox="0 0 16 16" id="magic"><path d="M9.5 2.672a.5.5 0 1 0 1 0V.843a.5.5 0 0 0-1 0v1.829Zm4.5.035A.5.5 0 0 0 13.293 2L12 3.293a.5.5 0 1 0 .707.707L14 2.707ZM7.293 4A.5.5 0 1 0 8 3.293L6.707 2A.5.5 0 0 0 6 2.707L7.293 4Zm-.621 2.5a.5.5 0 1 0 0-1H4.843a.5.5 0 1 0 0 1h1.829Zm8.485 0a.5.5 0 1 0 0-1h-1.829a.5.5 0 0 0 0 1h1.829ZM13.293 10A.5.5 0 1 0 14 9.293L12.707 8a.5.5 0 1 0-.707.707L13.293 10ZM9.5 11.157a.5.5 0 0 0 1 0V9.328a.5.5 0 0 0-1 0v1.829Zm1.854-5.097a.5.5 0 0 0 0-.706l-.708-.708a.5.5 0 0 0-.707 0L8.646 5.94a.5.5 0 0 0 0 .707l.708.708a.5.5 0 0 0 .707 0l1.293-1.293Zm-3 3a.5.5 0 0 0 0-.706l-.708-.708a.5.5 0 0 0-.707 0L.646 13.94a.5.5 0 0 0 0 .707l.708.708a.5.5 0 0 0 .707 0L8.354 9.06Z"/></symbol>
<symbol viewBox="0 0 16 16" id="envelope"><path d="M0 4a2 2 0 0 1 2-2h12a2 2 0 0 1 2 2v8a2 2 0 0 1-2 2H2a2 2 0 0 1-2-2V4Zm2-1a1 1 0 0 0-1 1v.217l7 4.2 7-4.2V4a1 1 0 0 0-1-1H2Zm13 2.383-4.708 2.825L15 11.105V5.383Zm-.034 6.876-5.64-3.471L8 9.583l-1.326-.795-5.64 3.47A1 1 0 0 0 2 13h12a1 1 0 0 0 .966-.741ZM1 11.105l4.708-2.897L1 5.383v5.722Z"/></symbol>
<symbol viewBox="0 0 16 16" id="clipboard2-check"><path d="M9.5 0a.5.5 0 0 1 .5.5.5.5 0 0 0 .5.5.5.5 0 0 1 .5.5V2a.5.5 0 0 1-.5.5h-5A.5.5 0 0 1 5 2v-.5a.5.5 0 0 1 .5-.5.5.5 0 0 0 .5-.5.5.5 0 0 1 .5-.5h3Z"/><path d="M3 2.5a.5.5 0 0 1 .5-.5H4a.5.5 0 0 0 0-1h-.5A1.5 1.5 0 0 0 2 2.5v12A1.5 1.5 0 0 0 3.5 16h9a1.5 1.5 0 0 0 1.5-1.5v-12A1.5 1.5 0 0 0 12.5 1H12a.5.5 0 0 0 0 1h.5a.5.5 0 0 1 .5.5v12a.5.5 0 0 1-.5.5h-9a.5.5 0 0 1-.5-.5v-12Z"/><path d="M10.854 7.854a.5.5 0 0 0-.708-.708L7.5 9.793 6.354 8.646a.5.5 0 1 0-.708.708l1.5 1.5a.5.5 0 0 0 .708 0l3-3Z"/></symbol>
<symbol viewBox="0 0 16 16" id="clipboard2"><path d="M3.5 2a.5.5 0 0 0-.5.5v12a.5.5 0 0 0 .5.5h9a.5.5 0 0 0 .5-.5v-12a.5.5 0 0 0-.5-.5H12a.5.5 0 0 1 0-1h.5A1.5 1.5 0 0 1 14 2.5v12a1.5 1.5 0 0 1-1.5 1.5h-9A1.5 1.5 0 0 1 2 14.5v-12A1.5 1.5 0 0 1 3.5 1H4a.5.5 0 0 1 0 1h-.5Z"/><path d="M10 .5a.5.5 0 0 0-.5-.5h-3a.5.5 0 0 0-.5.5.5.5 0 0 1-.5.5.5.5 0 0 0-.5.5V2a.5.5 0 0 0 .5.5h5A.5.5 0 0 0 11 2v-.5a.5.5 0 0 0-.5-.5.5.5 0 0 1-.5-.5Z"/></symbol>
<symbol viewBox="0 0 16 16" id="tools"><path d="M1 0 0 1l2.2 3.081a1 1 0 0 0 .815.419h.07a1 1 0 0 1 .708.293l2.675 2.675-2.617 2.654A3.003 3.003 0 0 0 0 13a3 3 0 1 0 5.878-.851l2.654-2.617.968.968-.305.914a1 1 0 0 0 .242 1.023l3.27 3.27a.997.997 0 0 0 1.414 0l1.586-1.586a.997.997 0 0 0 0-1.414l-3.27-3.27a1 1 0 0 0-1.023-.242L10.5 9.5l-.96-.96 2.68-2.643A3.005 3.005 0 0 0 16 3c0-.269-.035-.53-.102-.777l-2.14 2.141L12 4l-.364-1.757L13.777.102a3 3 0 0 0-3.675 3.68L7.462 6.46 4.793 3.793a1 1 0 0 1-.293-.707v-.071a1 1 0 0 0-.419-.814L1 0Zm9.646 10.646a.5.5 0 0 1 .708 0l2.914 2.915a.5.5 0 0 1-.707.707l-2.915-2.914a.5.5 0 0 1 0-.708ZM3 11l.471.242.529.026.287.445.445.287.026.529L5 13l-.242.471-.026.529-.445.287-.287.445-.529.026L3 15l-.471-.242L2 14.732l-.287-.445L1.268 14l-.026-.529L1 13l.242-.471.026-.529.445-.287.287-.445.529-.026L3 11Z"/></symbol>
<symbol viewBox="0 0 16 16" id="sliders"><path fill-rule="evenodd" d="M11.5 2a1.5 1.5 0 1 0 0 3 1.5 1.5 0 0 0 0-3zM9.05 3a2.5 2.5 0 0 1 4.9 0H16v1h-2.05a2.5 2.5 0 0 1-4.9 0H0V3h9.05zM4.5 7a1.5 1.5 0 1 0 0 3 1.5 1.5 0 0 0 0-3zM2.05 8a2.5 2.5 0 0 1 4.9 0H16v1H6.95a2.5 2.5 0 0 1-4.9 0H0V8h2.05zm9.45 4a1.5 1.5 0 1 0 0 3 1.5 1.5 0 0 0 0-3zm-2.45 1a2.5 2.5 0 0 1 4.9 0H16v1h-2.05a2.5 2.5 0 0 1-4.9 0H0v-1h9.05z"/></symbol>
<symbol viewBox="0 0 16 16" id="door-open"><path d="M8.5 10c-.276 0-.5-.448-.5-1s.224-1 .5-1 .5.448.5 1-.224 1-.5 1z"/><path d="M10.828.122A.5.5 0 0 1 11 .5V1h.5A1.5 1.5 0 0 1 13 2.5V15h1.5a.5.5 0 0 1 0 1h-13a.5.5 0 0 1 0-1H3V1.5a.5.5 0 0 1 .43-.495l7-1a.5.5 0 0 1 .398.117zM11.5 2H11v13h1V2.5a.5.5 0 0 0-.5-.5zM4 1.934V15h6V1.077l-6 .857z"/></symbol>
<symbol viewBox="0 0 16 16" id="house"><path d="M8.707 1.5a1 1 0 0 0-1.414 0L.646 8.146a.5.5 0 0 0 .708.708L2 8.207V13.5A1.5 1.5 0 0 0 3.5 15h9a1.5 1.5 0 0 0 1.5-1.5V8.207l.646.647a.5.5 0 0 0 .708-.708L13 5.793V2.5a.5.5 0 0 0-.5-.5h-1a.5.5 0 0 0-.5.5v1.293L8.707 1.5ZM13 7.207V13.5a.5.5 0 0 1-.5.5h-9a.5.5 0 0 1-.5-.5V7.207l5-5 5 5Z"/></symbol>
<symbol viewBox="0 0 16 16" id="hdd-stack"><path d="M14 10a1 1 0 0 1 1 1v1a1 1 0 0 1-1 1H2a1 1 0 0 1-1-1v-1a1 1 0 0 1 1-1h12zM2 9a2 2 0 0 0-2 2v1a2 2 0 0 0 2 2h12a2 2 0 0 0 2-2v-1a2 2 0 0 0-2-2H2z"/><path d="M5 11.5a.5.5 0 1 1-1 0 .5.5 0 0 1 1 0zm-2 0a.5.5 0 1 1-1 0 .5.5 0 0 1 1 0zM14 3a1 1 0 0 1 1 1v1a1 1 0 0 1-1 1H2a1 1 0 0 1-1-1V4a1 1 0 0 1 1-1h12zM2 2a2 2 0 0 0-2 2v1a2 2 0 0 0 2 2h12a2 2 0 0 0 2-2V4a2 2 0 0 0-2-2H2z"/><path d="M5 4.5a.5.5 0 1 1-1 0 .5.5 0 0 1 1 0zm-2 0a.5.5 0 1 1-1 0 .5.5 0 0 1 1 0z"/></symbol>
<symbol viewBox="0 0 16 16" id="ethernet"><path d="M14 13.5v-7a.5.5 0 0 0-.5-.5H12V4.5a.5.5 0 0 0-.5-.5h-1v-.5A.5.5 0 0 0 10 3H6a.5.5 0 0 0-.5.5V4h-1a.5.5 0 0 0-.5.5V6H2.5a.5.5 0 0 0-.5.5v7a.5.5 0 0 0 .5.5h11a.5.5 0 0 0 .5-.5ZM3.75 11h.5a.25.25 0 0 1 .25.25v1.5a.25.25 0 0 1-.25.25h-.5a.25.25 0 0 1-.25-.25v-1.5a.25.25 0 0 1 .25-.25Zm2 0h.5a.25.25 0 0 1 .25.25v1.5a.25.25 0 0 1-.25.25h-.5a.25.25 0 0 1-.25-.25v-1.5a.25.25 0 0 1 .25-.25Zm1.75.25a.25.25 0 0 1 .25-.25h.5a.25.25 0 0 1 .25.25v1.5a.25.25 0 0 1-.25.25h-.5a.25.25 0 0 1-.25-.25v-1.5ZM9.75 11h.5a.25.25 0 0 1 .25.25v1.5a.25.25 0 0 1-.25.25h-.5a.25.25 0 0 1-.25-.25v-1.5a.25.25 0 0 1 .25-.25Zm1.75.25a.25.25 0 0 1 .25-.25h.5a.25.25 0 0 1 .25.25v1.5a.25.25 0 0 1-.25.25h-.5a.25.25 0 0 1-.25-.25v-1.5Z"/><path d="M2 0a2 2 0 0 0-2 2v12a2 2 0 0 0 2 2h12a2 2 0 0 0 2-2V2a2 2 0 0 0-2-2H2ZM1 2a1 1 0 0 1 1-1h12a1 1 0 0 1 1 1v12a1 1 0 0 1-1 1H2a1 1 0 0 1-1-1V2Z"/></symbol>
<symbol viewBox="0 0 16 16" id="wifi"><path d="M15.384 6.115a.485.485 0 0 0-.047-.736A12.444 12.444 0 0 0 8 3C5.259 3 2.723 3.882.663 5.379a.485.485 0 0 0-.048.736.518.518 0 0 0 .668.05A11.448 11.448 0 0 1 8 4c2.507 0 4.827.802 6.716 2.164.205.148.49.13.668-.049z"/><path d="M13.229 8.271a.482.482 0 0 0-.063-.745A9.455 9.455 0 0 0 8 6c-1.905 0-3.68.56-5.166 1.526a.48.48 0 0 0-.063.745.525.525 0 0 0 .652.065A8.46 8.46 0 0 1 8 7a8.46 8.46 0 0 1 4.576 1.336c.206.132.48.108.653-.065zm-2.183 2.183c.226-.226.185-.605-.1-.75A6.473 6.473 0 0 0 8 9c-1.06 0-2.062.254-2.946.704-.285.145-.326.524-.1.75l.015.015c.16.16.407.19.611.09A5.478 5.478 0 0 1 8 10c.868 0 1.69.201 2.42.56.203.1.45.07.61-.091l.016-.015zM9.06 12.44c.196-.196.198-.52-.04-.66A1.99 1.99 0 0 0 8 11.5a1.99 1.99 0 0 0-1.02.28c-.238.14-.236.464-.04.66l.706.706a.5.5 0 0 0 .707 0l.707-.707z"/></symbol>
<symbol viewBox="0 0 16 16" id="activity"><path fill-rule="evenodd" d="M6 2a.5.5 0 0 1 .47.33L10 12.036l1.53-4.208A.5.5 0 0 1 12 7.5h3.5a.5.5 0 0 1 0 1h-3.15l-1.88 5.17a.5.5 0 0 1-.94 0L6 3.964 4.47 8.171A.5.5 0 0 1 4 8.5H.5a.5.5 0 0 1 0-1h3.15l1.88-5.17A.5.5 0 0 1 6 2Z"/></symbol>
<symbol viewBox="0 0 16 16" id="boxes"><path fill-rule="evenodd" d="M7.752.066a.5.5 0 0 1 .496 0l3.75 2.143a.5.5 0 0 1 .252.434v3.995l3.498 2A.5.5 0 0 1 16 9.07v4.286a.5.5 0 0 1-.252.434l-3.75 2.143a.5.5 0 0 1-.496 0l-3.502-2-3.502 2.001a.5.5 0 0 1-.496 0l-3.75-2.143A.5.5 0 0 1 0 13.357V9.071a.5.5 0 0 1 .252-.434L3.75 6.638V2.643a.5.5 0 0 1 .252-.434L7.752.066ZM4.25 7.504 1.508 9.071l2.742 1.567 2.742-1.567L4.25 7.504ZM7.5 9.933l-2.75 1.571v3.134l2.75-1.571V9.933Zm1 3.134 2.75 1.571v-3.134L8.5 9.933v3.134Zm.508-3.996 2.742 1.567 2.742-1.567-2.742-1.567-2.742 1.567Zm2.242-2.433V3.504L8.5 5.076V8.21l2.75-1.572ZM7.5 8.21V5.076L4.75 3.504v3.134L7.5 8.21ZM5.258 2.643 8 4.21l2.742-1.567L8 1.076 5.258 2.643ZM15 9.933l-2.75 1.571v3.134L15 13.067V9.933ZM3.75 14.638v-3.134L1 9.933v3.134l2.75 1.571Z"/></symbol>
<symbol viewBox="0 0 16 16" id="lock"><path d="M8 1a2 2 0 0 1 2 2v4H6V3a2 2 0 0 1 2-2zm3 6V3a3 3 0 0 0-6 0v4a2 2 0 0 0-2 2v5a2 2 0 0 0 2 2h6a2 2 0 0 0 2-2V9a2 2 0 0 0-2-2zM5 8h6a1 1 0 0 1 1 1v5a1 1 0 0 1-1 1H5a1 1 0 0 1-1-1V9a1 1 0 0 1 1-1z"/></symbol>
<symbol viewBox="0 0 16 16" id="cpu"><path d="M5 0a.5.5 0 0 1 .5.5V2h1V.5a.5.5 0 0 1 1 0V2h1V.5a.5.5 0 0 1 1 0V2h1V.5a.5.5 0 0 1 1 0V2A2.5 2.5 0 0 1 14 4.5h1.5a.5.5 0 0 1 0 1H14v1h1.5a.5.5 0 0 1 0 1H14v1h1.5a.5.5 0 0 1 0 1H14v1h1.5a.5.5 0 0 1 0 1H14a2.5 2.5 0 0 1-2.5 2.5v1.5a.5.5 0 0 1-1 0V14h-1v1.5a.5.5 0 0 1-1 0V14h-1v1.5a.5.5 0 0 1-1 0V14h-1v1.5a.5.5 0 0 1-1 0V14A2.5 2.5 0 0 1 2 11.5H.5a.5.5 0 0 1 0-1H2v-1H.5a.5.5 0 0 1 0-1H2v-1H.5a.5.5 0 0 1 0-1H2v-1H.5a.5.5 0 0 1 0-1H2A2.5 2.5 0 0 1 4.5 2V.5A.5.5 0 0 1 5 0zm-.5 3A1.5 1.5 0 0 0 3 4.5v7A1.5 1.5 0 0 0 4.5 13h7a1.5 1.5 0 0 0 1.5-1.5v-7A1.5 1.5 0 0 0 11.5 3h-7zM5 6.5A1.5 1.5 0 0 1 6.5 5h3A1.5 1.5 0 0 1 11 6.5v3A1.5 1.5 0 0 1 9.5 11h-3A1.5 1.5 0 0 1 5 9.5v-3zM6.5 6a.5.5 0 0 0-.5.5v3a.5.5 0 0 0 .5.5h3a.5.5 0 0 0 .5-.5v-3a.5.5 0 0 0-.5-.5h-3z"/></symbol>
<symbol viewBox="0 0 16 16" id="info-square"><path d="M14 1a1 1 0 0 1 1 1v12a1 1 0 0 1-1 1H2a1 1 0 0 1-1-1V2a1 1 0 0 1 1-1h12zM2 0a2 2 0 0 0-2 2v12a2 2 0 0 0 2 2h12a2 2 0 0 0 2-2V2a2 2 0 0 0-2-2H2z"/><path d="m8.93 6.588-2.29.287-.082.38.45.083c.294.07.352.176.288.469l-.738 3.468c-.194.897.105 1.319.808 1.319.545 0 1.178-.252 1.465-.598l.088-.416c-.2.176-.492.246-.686.246-.275 0-.375-.193-.304-.533L8.93 6.588zM9 4.5a1 1 0 1 1-2 0 1 1 0 0 1 2 0z"/></symbol>
<symbol viewBox="0 0 16 16" id="link"><path d="M4.715 6.542 3.343 7.914a3 3 0 1 0 4.243 4.243l1.828-1.829A3 3 0 0 0 8.586 5.5L8 6.086a1.002 1.002 0 0 0-.154.199 2 2 0 0 1 .861 3.337L6.88 11.45a2 2 0 1 1-2.83-2.83l.793-.792a4.018 4.018 0 0 1-.128-1.287z"></path><path d="M6.586 4.672A3 3 0 0 0 7.414 9.5l.775-.776a2 2 0 0 1-.896-3.346L9.12 3.55a2 2 0 1 1 2.83 2.83l-.793.792c.112.42.155.855.128 1.287l1.372-1.372a3 3 0 1 0-4.243-4.243L6.586 4.672z"></path></symbol>
<symbol viewBox="0 0 16 16" id="systemControl"><path fill-rule="evenodd" d="M11.5 2a1.5 1.5 0 1 0 0 3 1.5 1.5 0 0 0 0-3zM9.05 3a2.5 2.5 0 0 1 4.9 0H16v1h-2.05a2.5 2.5 0 0 1-4.9 0H0V3h9.05zM4.5 7a1.5 1.5 0 1 0 0 3 1.5 1.5 0 0 0 0-3zM2.05 8a2.5 2.5 0 0 1 4.9 0H16v1H6.95a2.5 2.5 0 0 1-4.9 0H0V8h2.05zm9.45 4a1.5 1.5 0 1 0 0 3 1.5 1.5 0 0 0 0-3zm-2.45 1a2.5 2.5 0 0 1 4.9 0H16v1h-2.05a2.5 2.5 0 0 1-4.9 0H0v-1h9.05z"></path></symbol>
<symbol viewBox="0 0 16 16" id="systemTools"><path d="M1 0 0 1l2.2 3.081a1 1 0 0 0 .815.419h.07a1 1 0 0 1 .708.293l2.675 2.675-2.617 2.654A3.003 3.003 0 0 0 0 13a3 3 0 1 0 5.878-.851l2.654-2.617.968.968-.305.914a1 1 0 0 0 .242 1.023l3.27 3.27a.997.997 0 0 0 1.414 0l1.586-1.586a.997.997 0 0 0 0-1.414l-3.27-3.27a1 1 0 0 0-1.023-.242L10.5 9.5l-.96-.96 2.68-2.643A3.005 3.005 0 0 0 16 3c0-.269-.035-.53-.102-.777l-2.14 2.141L12 4l-.364-1.757L13.777.102a3 3 0 0 0-3.675 3.68L7.462 6.46 4.793 3.793a1 1 0 0 1-.293-.707v-.071a1 1 0 0 0-.419-.814L1 0Zm9.646 10.646a.5.5 0 0 1 .708 0l2.914 2.915a.5.5 0 0 1-.707.707l-2.915-2.914a.5.5 0 0 1 0-.708ZM3 11l.471.242.529.026.287.445.445.287.026.529L5 13l-.242.471-.026.529-.445.287-.287.445-.529.026L3 15l-.471-.242L2 14.732l-.287-.445L1.268 14l-.026-.529L1 13l.242-.471.026-.529.445-.287.287-.445.529-.026L3 11Z"></path></symbol>
<symbol viewBox="0 0 16 16" id="download"><path d="M.5 9.9a.5.5 0 0 1 .5.5v2.5a1 1 0 0 0 1 1h12a1 1 0 0 0 1-1v-2.5a.5.5 0 0 1 1 0v2.5a2 2 0 0 1-2 2H2a2 2 0 0 1-2-2v-2.5a.5.5 0 0 1 .5-.5z"/><path d="M7.646 11.854a.5.5 0 0 0 .708 0l3-3a.5.5 0 0 0-.708-.708L8.5 10.293V1.5a.5.5 0 0 0-1 0v8.793L5.354 8.146a.5.5 0 1 0-.708.708l3 3z"/></symbol>
<symbol viewBox="0 0 16 16" id="vpn"><path d="M 7.917969 1 C 6.300781 1 5 2.300781 5 3.917969 L 5 5 C 4.4375 5.007812 3.992188 5.46875 4 6.03125 L 4 9.96875 C 4 10.539062 4.460938 11 5.03125 11 L 7 11 L 7 12.875 L 9 12.875 L 9 11 L 10.96875 11 C 11.539062 11 12 10.539062 12 9.96875 L 12 6.03125 C 12.007812 5.46875 11.5625 5.007812 11 5 L 11 3.917969 C 11 2.300781 9.699219 1 8.082031 1 Z M 8 3 C 8.554688 3 9 3.445312 9 4 L 9 5 L 7 5 L 7 4 C 7 3.445312 7.445312 3 8 3 Z M 8 3 "/><path d="M 7.996094 15.949219 C 7.292969 15.949219 6.644531 15.578125 6.28125 14.976562 L 2.996094 14.976562 C 2.445312 14.976562 1.996094 14.527344 1.996094 13.976562 C 1.996094 13.425781 2.445312 12.976562 2.996094 12.976562 L 6.246094 12.976562 C 6.597656 12.335938 7.265625 11.941406 7.996094 11.9375 C 8.726562 11.941406 9.398438 12.335938 9.75 12.976562 L 13.007812 12.976562 C 13.5625 12.976562 14.007812 13.425781 14.007812 13.976562 C 14.007812 14.527344 13.5625 14.976562 13.007812 14.976562 L 9.714844 14.976562 C 9.351562 15.578125 8.699219 15.949219 7.996094 15.949219 Z M 7.996094 14.949219 C 8.550781 14.949219 9.003906 14.5 9.003906 13.945312 C 9.003906 13.386719 8.550781 12.9375 7.996094 12.9375 C 7.441406 12.9375 6.992188 13.386719 6.992188 13.945312 C 6.992188 14.5 7.441406 14.949219 7.996094 14.949219 Z M 7.996094 14.949219 "/></symbol>
<symbol viewBox="0 0 16 16" id="mqtt"><path d="M0.4,9.1v5.8c0,0.4,0.3,0.8,0.8,0.8h6C7.1,12,4.1,9.1,0.4,9.1z"/><path d="M0.4,4.3v2.5c4.9,0,8.9,4,9,8.9H12C11.9,9.4,6.8,4.3,0.4,4.3z"/><path d="M15.7,14.9V9.7C13.9,5.4,10.4,2,6,0.4H1.2c-0.4,0-0.8,0.3-0.8,0.8v0.7C8,2,14.2,8.1,14.3,15.7h0.6 C15.3,15.7,15.7,15.3,15.7,14.9z"/><path d="M13.7,2.6c0.7,0.7,1.4,1.6,2,2.4V1.2c0-0.4-0.3-0.8-0.8-0.8h-3.9C12,1,12.9,1.8,13.7,2.6z"/></symbol>
<symbol viewBox="0 0 16 16" id="sun"><path d="M11.3,0c0.2,0.1,0.3,0.2,0.3,0.4l0.6,3.4l3.4,0.6c0.2,0,0.3,0.1,0.4,0.3c0.1,0.2,0,0.3,0,0.5L14,8l1.9,2.8c0.1,0.1,0.1,0.3,0,0.5c-0.1,0.2-0.2,0.3-0.4,0.3l-3.4,0.6l-0.6,3.4c0,0.2-0.1,0.3-0.3,0.4s-0.3,0-0.5,0L8,14l-2.8,1.9C5,16,4.9,16,4.7,16c-0.2-0.1-0.3-0.2-0.3-0.4l-0.6-3.4l-3.4-0.6c-0.2,0-0.3-0.1-0.4-0.3s0-0.3,0-0.5L2,8L0.1,5.2C0,5,0,4.9,0,4.7c0.1-0.2,0.2-0.3,0.4-0.3l3.4-0.6l0.6-3.4c0-0.2,0.1-0.3,0.3-0.4C4.9,0,5,0,5.2,0.1L8,2l2.8-1.9C11,0,11.1,0,11.3,0z M5,8c0-1.7,1.3-3,3-3s3,1.3,3,3s-1.3,3-3,3S5,9.7,5,8z M12,8c0-2.2-1.8-4-4-4S4,5.8,4,8s1.8,4,4,4S12,10.2,12,8z"/></symbol>
<symbol viewBox="0 0 16 16" id="moon"><path d="M9.2,0c-4.4,0-8,3.6-8,8s3.6,8,8,8c2.2,0,4.1-0.9,5.6-2.3c0.2-0.2,0.2-0.4,0.1-0.7c-0.1-0.2-0.4-0.3-0.6-0.3c-0.3,0.1-0.7,0.1-1.1,0.1c-3.5,0-6.3-2.8-6.3-6.3c0-2.4,1.3-4.4,3.2-5.5c0.2-0.1,0.3-0.4,0.3-0.6S10.1,0.1,9.9,0C9.6,0,9.4,0,9.2,0L9.2,0z"/></symbol>
<symbol viewBox="0 0 16 16" id="file"><path d="M4 0h5.293A1 1 0 0 1 10 .293L13.707 4a1 1 0 0 1 .293.707V14a2 2 0 0 1-2 2H4a2 2 0 0 1-2-2V2a2 2 0 0 1 2-2m5.5 1.5v2a1 1 0 0 0 1 1h2z"/></symbol>
</svg>