<?xml version="1.0" encoding="utf-8"?>
<!-- Generator: Adobe Illustrator 25.3.1, SVG Export Plug-In . SVG Version: 6.00 Build 0)  -->
<svg version="1.1" id="Layer_1" xmlns="http://www.w3.org/2000/svg" xmlns:xlink="http://www.w3.org/1999/xlink" x="0px" y="0px"
	 viewBox="0 0 64 64" style="enable-background:new 0 0 64 64;" xml:space="preserve">
<style type="text/css">
	.st0{fill:#A7A9AC;}
	.st1{fill:#FEEA00;}
	.st2{fill:#231F20;}
</style>
<g>
	<g>
		<path class="st0" d="M32,9.7c6,0,12,0,18,0c2.3,0,3.7,1,4.2,3c0.1,0.3,0.1,0.6,0.1,0.9c0,12.3,0,24.5,0,36.8
			c0,2.5-1.6,4.1-4.2,4.1l-36.4,0c-2.5,0-4.2-1.6-4.2-4.2c0-12.2,0-24.5,0-36.7c0-2.1,1.6-3.8,3.7-3.8C19.6,9.7,32,9.7,32,9.7z"/>
	</g>
	<path class="st0" d="M17.7,1.2c-0.7,0-1.2,0.1-1.3,1l-0.7,5.5c-0.1,0.6,0.2,0.9,0.7,0.9l5,0c0.6,0,0.8-0.2,0.7-0.8L21.3,2
		c-0.1-0.5-0.4-0.8-0.9-0.8L17.7,1.2z"/>
	<path class="st0" d="M43.9,1.2c-0.7,0-1.2,0.1-1.3,1l-0.7,5.5c-0.1,0.6,0.2,0.9,0.7,0.9l5,0c0.6,0,0.8-0.2,0.7-0.8l-0.8-5.8
		c-0.1-0.5-0.4-0.8-0.9-0.8L43.9,1.2z"/>
	<path class="st0" d="M30.8,1.2c-0.7,0-1.2,0.1-1.3,1l-0.7,5.5c-0.1,0.6,0.2,0.9,0.7,0.9l5,0c0.6,0,0.8-0.2,0.7-0.8L34.4,2
		c-0.1-0.5-0.4-0.8-0.9-0.8L30.8,1.2z"/>
	<path class="st0" d="M20.1,62.8c0.7,0,1.2-0.1,1.3-1l0.7-5.5c0.1-0.6-0.2-0.9-0.7-0.9l-5,0c-0.6,0-0.8,0.2-0.7,0.8l0.8,5.8
		c0.1,0.5,0.4,0.8,0.9,0.8L20.1,62.8z"/>
	<path class="st0" d="M33.2,62.8c0.7,0,1.2-0.1,1.3-1l0.7-5.5c0.1-0.6-0.2-0.9-0.7-0.9l-5,0c-0.6,0-0.8,0.2-0.7,0.8l0.8,5.8
		c0.1,0.5,0.4,0.8,0.9,0.8L33.2,62.8z"/>
	<path class="st0" d="M46.2,62.8c0.7,0,1.2-0.1,1.3-1l0.7-5.5c0.1-0.6-0.2-0.9-0.7-0.9l-5,0c-0.6,0-0.8,0.2-0.7,0.8l0.8,5.8
		c0.1,0.5,0.4,0.8,0.9,0.8L46.2,62.8z"/>
	<path class="st0" d="M62.8,44c0-0.7-0.1-1.2-1-1.3l-5.5-0.7c-0.6-0.1-0.9,0.2-0.9,0.7l0,5c0,0.6,0.2,0.8,0.8,0.7l5.8-0.8
		c0.5-0.1,0.8-0.4,0.8-0.9L62.8,44z"/>
	<path class="st0" d="M62.8,30.9c0-0.7-0.1-1.2-1-1.3l-5.5-0.7c-0.6-0.1-0.9,0.2-0.9,0.7l0,5c0,0.6,0.2,0.8,0.8,0.7l5.8-0.8
		c0.5-0.1,0.8-0.4,0.8-0.9L62.8,30.9z"/>
	<path class="st0" d="M62.8,17.8c0-0.7-0.1-1.2-1-1.3l-5.5-0.7c-0.6-0.1-0.9,0.2-0.9,0.7l0,5c0,0.6,0.2,0.8,0.8,0.7l5.8-0.8
		c0.5-0.1,0.8-0.4,0.8-0.9L62.8,17.8z"/>
	<path class="st0" d="M1.2,20.1c0,0.7,0.1,1.2,1,1.3l5.5,0.7c0.6,0.1,0.9-0.2,0.9-0.7l0-5c0-0.6-0.2-0.8-0.8-0.7L2,16.5
		c-0.5,0.1-0.8,0.4-0.8,0.9L1.2,20.1z"/>
	<path class="st0" d="M1.2,33.2c0,0.7,0.1,1.2,1,1.3l5.5,0.7c0.6,0.1,0.9-0.2,0.9-0.7l0-5c0-0.6-0.2-0.8-0.8-0.7L2,29.6
		c-0.5,0.1-0.8,0.4-0.8,0.9L1.2,33.2z"/>
	<path class="st0" d="M1.2,46.2c0,0.7,0.1,1.2,1,1.3l5.5,0.7c0.6,0.1,0.9-0.2,0.9-0.7l0-5c0-0.6-0.2-0.8-0.8-0.7L2,42.6
		c-0.5,0.1-0.8,0.4-0.8,0.9L1.2,46.2z"/>
</g>
<path class="st1" d="M49.9,45.2c0,2.7-2.1,4.7-4.7,4.7c-8.8,0-17.6,0-26.4,0c-2.7,0-4.7-2.2-4.7-4.8c0-8.8,0-17.6,0-26.4
	c0-2.5,1.8-4.5,4.4-4.7c1.2-0.1,2.4,0,3.7,0c7.8,0,15.5,0,23.3,0.1c2.5,0,4.5,1.9,4.5,4.5C50,23.1,49.9,40.8,49.9,45.2z"/>
<path class="st2" d="M25.7,19.9c2,2,3.9,3.8,5.7,5.8c0.5,0.5,0.7,0.5,1.2,0c1.7-1.8,3.5-3.5,5.2-5.2c0.3-0.4,0.5-0.5,0.9-0.1
	c1.6,1.7,3.2,3.3,4.9,4.9c0.4,0.4,0.4,0.5,0,0.9c-1.8,1.8-3.6,3.6-5.4,5.4c-0.3,0.3-0.4,0.5,0,0.9c1.8,1.7,3.5,3.5,5.3,5.3
	c0.5,0.4,0.6,0.7,0.1,1.2c-1.6,1.5-3.2,3.1-4.8,4.8c-0.4,0.4-0.5,0.3-0.9,0c-1.8-1.8-3.6-3.5-5.3-5.3c-0.4-0.4-0.6-0.5-1.1,0
	c-1.7,1.8-3.5,3.5-5.2,5.2c-0.5,0.5-0.7,0.4-1.1,0c-1.5-1.6-3.1-3.2-4.7-4.7c-0.4-0.4-0.4-0.7,0-1c1.7-1.7,3.4-3.4,5.1-5
	c0.7-0.6,0.4-1-0.1-1.5c-1.7-1.6-3.3-3.3-5-4.9c-0.5-0.5-0.5-0.7,0-1.2C22.3,23.5,24,21.7,25.7,19.9z"/>
</svg>
